<?xml version="1.0" encoding="utf-8"?>
<!-- Generator: Adobe Illustrator 15.1.0, SVG Export Plug-In . SVG Version: 6.00 Build 0)  -->
<!DOCTYPE svg PUBLIC "-//W3C//DTD SVG 1.1//EN" "http://www.w3.org/Graphics/SVG/1.1/DTD/svg11.dtd">
<svg version="1.1" id="Layer_1" xmlns="http://www.w3.org/2000/svg" xmlns:xlink="http://www.w3.org/1999/xlink" x="0px" y="0px"
	 width="342px" height="60px" viewBox="0 0 342 60" enable-background="new 0 0 342 60" xml:space="preserve">
<g>
	<g>
		<path fill="#E82127" d="M243.689,37.513c-0.455,0.277-1.409,0.555-2.613,0.555c-2.788,0-4.873-2.08-4.873-5.928
			c0-3.675,2.1-6.137,5.167-6.137c1.219,0,2.011,0.313,2.349,0.521l-0.323,1.23c-0.47-0.277-1.159-0.485-1.981-0.485
			c-2.319,0-3.86,1.751-3.86,4.818c0,2.878,1.395,4.698,3.787,4.698c0.793,0,1.585-0.19,2.1-0.485L243.689,37.513z"/>
		<path fill="#E82127" d="M254.626,31.914c0,4.004-2.069,6.153-4.594,6.153c-2.628,0-4.448-2.409-4.448-5.945
			c0-3.709,1.938-6.137,4.58-6.137C252.88,25.985,254.626,28.43,254.626,31.914z M246.935,32.087c0,2.514,1.145,4.75,3.171,4.75
			c2.025,0,3.17-2.201,3.17-4.854c0-2.34-1.027-4.767-3.155-4.767C247.991,27.217,246.935,29.539,246.935,32.087z"/>
		<path fill="#E82127" d="M265.799,32.746c-0.073-1.63-0.161-3.605-0.161-5.044h-0.029c-0.353,1.352-0.749,2.825-1.248,4.438
			l-1.747,5.668h-0.969l-1.614-5.564c-0.47-1.664-0.852-3.154-1.131-4.541h-0.029c-0.029,1.456-0.103,3.397-0.19,5.165l-0.265,5.01
			h-1.218l0.689-11.683h1.63l1.688,5.65c0.411,1.438,0.734,2.722,0.998,3.935h0.03c0.264-1.179,0.616-2.461,1.057-3.935l1.762-5.65
			h1.629l0.616,11.683h-1.262L265.799,32.746z"/>
		<path fill="#E82127" d="M278.776,32.746c-0.073-1.63-0.161-3.605-0.161-5.044h-0.029c-0.353,1.352-0.749,2.825-1.248,4.438
			l-1.747,5.668h-0.969l-1.614-5.564c-0.47-1.664-0.852-3.154-1.131-4.541h-0.029c-0.029,1.456-0.103,3.397-0.19,5.165l-0.265,5.01
			h-1.218l0.689-11.683h1.63l1.688,5.65c0.411,1.438,0.734,2.722,0.998,3.935h0.03c0.264-1.179,0.616-2.461,1.057-3.935l1.762-5.65
			h1.629l0.616,11.683h-1.262L278.776,32.746z"/>
		<path fill="#E82127" d="M288.524,32.399h-3.831v4.212h4.286v1.266h-5.578V26.194h5.358v1.265h-4.066v3.692h3.831V32.399z"/>
		<path fill="#E82127" d="M291.813,26.35c0.646-0.139,1.586-0.242,2.452-0.242c1.365,0,2.26,0.312,2.862,0.953
			c0.484,0.521,0.777,1.317,0.777,2.236c0,1.525-0.821,2.548-1.85,2.964v0.052c0.749,0.313,1.204,1.145,1.438,2.357
			c0.323,1.63,0.559,2.757,0.764,3.207h-1.321c-0.161-0.347-0.382-1.335-0.646-2.791c-0.294-1.612-0.837-2.219-1.996-2.271h-1.204
			v5.062h-1.277V26.35z M293.091,31.671h1.307c1.365,0,2.231-0.884,2.231-2.219c0-1.508-0.925-2.166-2.275-2.166
			c-0.617,0-1.042,0.052-1.263,0.121V31.671z"/>
		<path fill="#E82127" d="M307.829,37.513c-0.455,0.277-1.409,0.555-2.612,0.555c-2.789,0-4.874-2.08-4.874-5.928
			c0-3.675,2.1-6.137,5.167-6.137c1.219,0,2.011,0.313,2.349,0.521l-0.323,1.23c-0.47-0.277-1.159-0.485-1.981-0.485
			c-2.319,0-3.86,1.751-3.86,4.818c0,2.878,1.395,4.698,3.787,4.698c0.793,0,1.585-0.19,2.1-0.485L307.829,37.513z"/>
		<path fill="#E82127" d="M311.896,26.194v11.683h-1.292V26.194H311.896z"/>
		<path fill="#E82127" d="M316.902,34.202l-1.027,3.675h-1.321l3.376-11.683h1.526l3.376,11.683h-1.365l-1.057-3.675H316.902z
			 M320.161,33.023l-0.983-3.362c-0.221-0.764-0.367-1.457-0.514-2.133h-0.03c-0.146,0.676-0.293,1.404-0.499,2.115l-0.969,3.38
			H320.161z"/>
		<path fill="#E82127" d="M325.446,26.194h1.292v10.417h4.228v1.266h-5.52V26.194z"/>
	</g>
	<g>
		<polygon fill-rule="evenodd" clip-rule="evenodd" fill="#E82127" points="42.232,25.633 49.022,25.633 50.991,32.694 
			51.026,32.694 53.029,25.633 59.817,25.633 59.817,37.787 55.438,37.787 55.438,29.097 55.405,29.097 52.858,37.787 
			49.191,37.787 46.646,29.097 46.612,29.097 46.612,37.787 42.232,37.787 		"/>
		<path fill-rule="evenodd" clip-rule="evenodd" fill="#E82127" d="M65.588,25.633h5.908l5.194,12.154h-5.126l-0.509-1.393H66.03
			l-0.509,1.393h-5.092L65.588,25.633z M68.576,29.3h-0.033l-1.46,4.142h2.92L68.576,29.3z"/>
		<path fill-rule="evenodd" clip-rule="evenodd" fill="#E82127" d="M93.257,25.633h4.822V33c0,1.562,0.916,2.037,2.478,2.037
			c1.562,0,2.479-0.476,2.479-2.037v-7.367h4.787v7.537c0,3.871-2.309,5.059-7.265,5.059s-7.299-1.188-7.299-5.059V25.633z"/>
		<polygon fill-rule="evenodd" clip-rule="evenodd" fill="#E82127" points="113.253,28.688 108.806,28.688 108.806,25.633 
			122.521,25.633 122.521,28.688 118.074,28.688 118.074,37.787 113.253,37.787 		"/>
		<rect x="123.54" y="25.633" fill-rule="evenodd" clip-rule="evenodd" fill="#E82127" width="4.787" height="12.154"/>
		<path fill-rule="evenodd" clip-rule="evenodd" fill="#E82127" d="M93.021,37.787l-4.108-3.802
			c3.361-0.544,2.953-3.836,2.953-4.991c0-1.324-0.78-2.478-1.662-2.92c-0.68-0.339-1.494-0.441-2.886-0.441H77.165v12.154h4.821
			v-3.734h0.849l4.006,3.734H93.021z M81.986,28.688h3.361c0.781,0,1.392,0.238,1.392,1.154c0,0.747-0.407,1.12-1.324,1.12h-3.429
			V28.688z"/>
		<path fill-rule="evenodd" clip-rule="evenodd" fill="#E82127" d="M140.819,32.627c-2.343-0.374-3.327-1.731-3.327-3.429
			c0-3.157,3.09-4.006,7.062-4.006c5.397,0,7.639,1.425,7.809,4.006h-5.603c0-0.51-0.271-0.815-0.712-0.984
			c-0.441-0.204-0.985-0.272-1.494-0.272c-1.459,0-1.935,0.374-1.935,0.883c0,0.34,0.136,0.578,0.611,0.646l5.771,0.849
			c2.411,0.34,3.904,1.46,3.904,3.53c0,2.954-2.41,4.38-7.808,4.38c-3.7,0-7.774-0.51-7.774-4.108h5.804
			c0,0.408,0.17,0.68,0.51,0.883c0.374,0.17,0.883,0.238,1.629,0.238c1.493,0,1.901-0.408,1.901-0.985
			c0-0.373-0.203-0.713-0.85-0.814L140.819,32.627z"/>
		<path fill-rule="evenodd" clip-rule="evenodd" fill="#E82127" d="M154.229,25.633h4.82V33c0,1.562,0.916,2.037,2.478,2.037
			c1.563,0,2.479-0.476,2.479-2.037v-7.367h4.821v7.537c0,3.871-2.343,5.059-7.3,5.059c-4.956,0-7.298-1.188-7.298-5.059V25.633z"/>
		<polygon fill-rule="evenodd" clip-rule="evenodd" fill="#E82127" points="170.117,35.207 177.416,28.688 170.592,28.688 
			170.592,25.633 183.9,25.633 183.9,28.281 176.737,34.732 183.696,34.732 183.696,37.787 170.117,37.787 		"/>
		<path fill-rule="evenodd" clip-rule="evenodd" fill="#E82127" d="M185.19,25.633h4.787V33c0,1.562,0.917,2.037,2.479,2.037
			s2.478-0.476,2.478-2.037v-7.367h4.82v7.537c0,3.871-2.342,5.059-7.298,5.059c-4.958,0-7.266-1.188-7.266-5.059V25.633z"/>
		<rect x="218.63" y="25.633" fill-rule="evenodd" clip-rule="evenodd" fill="#E82127" width="4.787" height="12.154"/>
		<polygon fill-rule="evenodd" clip-rule="evenodd" fill="#E82127" points="201.859,37.787 206.51,37.787 206.442,33.441 
			211.094,37.787 217.271,37.787 210.584,31.574 217.612,25.633 211.772,25.633 206.51,29.843 206.51,25.633 201.859,25.633 		"/>
		<path fill-rule="evenodd" clip-rule="evenodd" fill="#E82127" d="M21.829,19.353c-3.598,3.226-7.739,5.603-12.153,7.536
			l15.718,11.237l-0.883,0.441l-6.518-4.345c-2.105-1.393-7.367-0.408-8.42,1.357l12.086,8.453
			c3.361-3.191,7.435-5.771,12.222-7.706L17.993,25.294l0.848-0.679l5.126,3.7c2.58,1.834,4.617,2.308,10.151-0.407L21.829,19.353z"
			/>
	</g>
</g>
</svg>
