<?xml version="1.0" encoding="utf-8"?>
<!-- Generator: Adobe Illustrator 15.1.0, SVG Export Plug-In . SVG Version: 6.00 Build 0)  -->
<!DOCTYPE svg PUBLIC "-//W3C//DTD SVG 1.1//EN" "http://www.w3.org/Graphics/SVG/1.1/DTD/svg11.dtd">
<svg version="1.1" id="Layer_1" xmlns="http://www.w3.org/2000/svg" xmlns:xlink="http://www.w3.org/1999/xlink" x="0px" y="0px"
	 width="211px" height="81.5px" viewBox="0 0 211 81.5" enable-background="new 0 0 211 81.5" xml:space="preserve">
<g>
	<polygon fill="#322B84" points="92.85,56.386 92.85,45.72 117.54,45.72 117.54,42.062 92.85,42.062 92.85,32.614 120.688,32.614 
		120.688,28.854 88.687,28.854 88.687,60.146 121.094,60.146 121.094,56.386 	"/>
	<path fill="#322B84" d="M192.613,47.039H176.26l8.327-12.801L192.613,47.039z M186.216,28.854h-3.355l-20.013,31.292h4.979
		l5.991-9.347h21.131l5.792,9.347h4.879L186.216,28.854z"/>
	<path fill="#322B84" d="M35.147,47.039H18.792l8.329-12.801L35.147,47.039z M28.85,28.854h-3.353L5.381,60.146h5.08l5.892-9.347
		h21.13l5.79,9.347h4.98L28.85,28.854z"/>
	<path fill="#322B84" d="M156.957,28.854v25.399c-3.05-2.641-7.62-6.706-13.818-12.089c-6.296-5.486-11.276-9.956-14.627-13.106
		l-0.203-0.203h-3.965v31.292h4.27v-25.5l28.547,25.5h4.063V28.854H156.957z"/>
	<path fill="#322B84" d="M76.903,42.265c-2.033,0.71-4.371,1.117-7.214,1.117H54.144V32.614h15.545
		c7.11,0,10.667,1.828,10.667,5.587C80.355,39.927,79.238,41.25,76.903,42.265L76.903,42.265z M76.596,46.228
		c0.814-0.203,1.424-0.406,2.033-0.609c4.062-1.525,6.095-4.064,6.095-7.519c0-6.095-5.181-9.245-15.441-9.245H49.878v31.292h4.265
		V47.141h14.53c1.117,0,2.234,0,3.453-0.203l8.229,13.209h4.978L76.596,46.228z"/>
</g>
</svg>
