<?xml version="1.0" encoding="utf-8"?>
<!-- Generator: Adobe Illustrator 15.1.0, SVG Export Plug-In . SVG Version: 6.00 Build 0)  -->
<!DOCTYPE svg PUBLIC "-//W3C//DTD SVG 1.1//EN" "http://www.w3.org/Graphics/SVG/1.1/DTD/svg11.dtd">
<svg version="1.1" xmlns="http://www.w3.org/2000/svg" xmlns:xlink="http://www.w3.org/1999/xlink" x="0px" y="0px" width="211px"
	 height="81.5px" viewBox="0 0 211 81.5" enable-background="new 0 0 211 81.5" xml:space="preserve">
<g id="Layer_1">
	<g display="none">
		<polygon display="inline" fill="#322B84" points="92.85,56.386 92.85,45.72 117.54,45.72 117.54,42.062 92.85,42.062 
			92.85,32.614 120.688,32.614 120.688,28.854 88.687,28.854 88.687,60.146 121.094,60.146 121.094,56.386 		"/>
		<path display="inline" fill="#322B84" d="M192.613,47.039H176.26l8.327-12.801L192.613,47.039z M186.216,28.854h-3.355
			l-20.013,31.292h4.979l5.991-9.347h21.131l5.792,9.347h4.879L186.216,28.854z"/>
		<path display="inline" fill="#322B84" d="M35.147,47.039H18.792l8.329-12.801L35.147,47.039z M28.85,28.854h-3.353L5.381,60.146
			h5.08l5.892-9.347h21.13l5.79,9.347h4.98L28.85,28.854z"/>
		<path display="inline" fill="#322B84" d="M156.957,28.854v25.399c-3.05-2.641-7.62-6.706-13.818-12.089
			c-6.296-5.486-11.276-9.956-14.627-13.106l-0.203-0.203h-3.965v31.292h4.27v-25.5l28.547,25.5h4.063V28.854H156.957z"/>
		<path display="inline" fill="#322B84" d="M76.903,42.265c-2.033,0.71-4.371,1.117-7.214,1.117H54.144V32.614h15.545
			c7.11,0,10.667,1.828,10.667,5.587C80.355,39.927,79.238,41.25,76.903,42.265L76.903,42.265z M76.596,46.228
			c0.814-0.203,1.424-0.406,2.033-0.609c4.062-1.525,6.095-4.064,6.095-7.519c0-6.095-5.181-9.245-15.441-9.245H49.878v31.292h4.265
			V47.141h14.53c1.117,0,2.234,0,3.453-0.203l8.229,13.209h4.978L76.596,46.228z"/>
	</g>
</g>
<g id="Layer_2">
	<g>
		<path fill-rule="evenodd" clip-rule="evenodd" d="M169.205,59.785h-3.064c0,1.927-1.022,1.375,8.265,1.375
			c0.557,0,0.462-0.273,0.462-0.918c0-0.733-1.763-0.457-3.343-0.457l4.644-10.831h10.586c0.37,1.378,4.457,9.453,4.735,10.831
			c-3.528,0-4.085-0.46-4.085,0.917c0,0.366,0.092,0.458,0.464,0.458h14.394c0.649,0,0.556-0.273,0.556-0.918
			c0-0.825-2.508-0.457-3.993-0.457c-0.184-0.368-0.278-0.645-0.462-1.012l-6.687-15.142c-0.559-1.286-1.208-2.568-1.766-4.038
			c-0.651-1.377-1.207-2.569-1.857-4.038c-0.278-0.642-0.557-1.193-0.834-1.927c-0.373-0.733-0.557-1.377-0.93-2.019l-1.301-2.937
			c-0.37-1.009-0.184-0.828-2.042-0.828c-0.556,0-0.741,0.828-1.111,1.653c-3.715,9.269-8.081,18.906-11.795,28.083
			C169.762,58.315,169.297,59.141,169.205,59.785L169.205,59.785z M176.633,47.304h9.656l-4.735-11.38L176.633,47.304z"/>
		<path fill-rule="evenodd" clip-rule="evenodd" d="M14.973,29.868h3.158v29.917c-3.621,0-3.158-0.368-3.158,1.19h9.192v-1.19
			h-3.342V33.169l7.335,10.186c1.301,1.838,11.887,16.611,11.979,17.163h2.413V29.868h3.159v-1.286h-9.192v1.286h3.342v19.086
			c-0.557-0.367-13.836-19.915-13.928-20.372H14.973V29.868z"/>
		<path fill-rule="evenodd" clip-rule="evenodd" d="M115.257,29.868c4.922,0,3.156-0.736,6.223,3.854
			c0.926,1.375,1.764,2.752,2.691,4.129l5.2,8.26c-1.207,1.835-6.314,7.892-8.08,10.187l-2.691,3.488c-0.465,0-1.023,0-1.579,0
			c-1.207-0.092-1.207-0.185-1.207,0.917c0,0.366,0.094,0.458,0.464,0.458h7.243c0.65,0,0.465-0.366,0.465-1.375h-2.506l6.963-8.628
			c0.37-0.552,1.949-2.663,2.508-2.844c0.184,0.457,0.556,1.009,0.834,1.375c0.278,0.552,0.651,1.009,0.929,1.469
			c0.651,0.918,1.208,1.835,1.857,2.845l3.715,5.783h-3.623v1.375h14.207c0.649,0,0.466-0.366,0.466-1.375
			c-4.182,0-2.88,0.457-4.459-1.93c-0.557-0.733-0.929-1.467-1.392-2.2l-8.263-12.85c0.462-0.733,4.549-5.597,5.291-6.516
			l4.549-5.688c0.651-1.01,0.373-0.733,3.064-0.733v-1.286h-8.077v1.286h2.691l-9.098,10.827c-0.095-0.642-1.207-2.111-1.674-2.752
			l-5.29-8.075h3.526v-1.286h-14.948V29.868z"/>
		<path fill-rule="evenodd" clip-rule="evenodd" d="M66.508,29.868h4.087v29.917h-4.087v1.19h26.927V50.697h-0.651
			c-1.112,4.59-4.271,9.088-10.027,9.088H77.28V44.457c4.827,0,7.057-0.366,8.915,5.231c0.184,0.735,0,0.825,0.929,0.825V36.75
			h-0.65c-0.373,1.467-1.023,2.936-1.858,4.129c-1.671,2.384-4.735,1.927-7.335,1.927V29.868c2.6,0,8.078-0.276,10.213,0.549
			c1.766,0.733,2.416,1.469,3.435,2.66c1.952,2.387,1.022,3.672,2.508,3.672v-8.167H66.508V29.868z"/>
	</g>
</g>
</svg>
