<?xml version="1.0" encoding="utf-8"?>
<!-- Generator: Adobe Illustrator 24.0.1, SVG Export Plug-In . SVG Version: 6.00 Build 0)  -->
<svg version="1.1" id="Layer_1" xmlns="http://www.w3.org/2000/svg" xmlns:xlink="http://www.w3.org/1999/xlink" x="0px" y="0px"
	 viewBox="0 0 527 490" style="enable-background:new 0 0 527 490;" xml:space="preserve">
<style type="text/css">
	.st0{fill:#DBD9D9;}
</style>
<image style="display:none;overflow:visible;" width="91" height="91" xlink:href="border.png"  transform="matrix(5.022 0 0 5.022 35 16)">
</image>
<g>
	<path class="st0" d="M40.6,261.9c0.3-0.1,0.6-0.1,0.9-0.2c-0.4-5.5-0.6-11.1-0.6-16.7c0-32.5,6.9-63.4,19.4-91.4
		c-2.5-0.1-5.1-0.1-7.6-0.2c-0.5,0-1,0-1.4-0.1C39,181.9,32.5,213,32.5,245c0,5.4,0.2,10.9,0.6,16.2
		C35.6,261.1,38.1,261.3,40.6,261.9z"/>
	<path class="st0" d="M454.6,122.9c1.9-0.3,3.9-0.5,5.8-0.8c0.6-0.1,1.1-0.2,1.7-0.2c0.6-0.1,1.1-0.2,1.7-0.3
		c-9.3-14.8-20.3-28.7-33-41.4C386.6,36,328.1,11.8,265.8,11.8S144.9,36,100.8,80.1c-11.3,11.3-21.3,23.6-29.9,36.6
		c1.1,0.3,2.1,0.7,3.2,1c1.6,0,3.3,0,4.9,0c0.4,0,0.8,0.1,1.2,0.1c40.6-59,108.6-97.8,185.5-97.8C344.8,20.1,414.5,61,454.6,122.9z"
		/>
	<path class="st0" d="M485.8,291.9c-13,61.2-51,113.3-102.7,145c0.3,3.1,0.7,6.2,1,9.3c16.8-9.9,32.5-22,46.7-36.2
		c33-33,54.8-74.1,63.8-118.7C491.6,291.6,488.7,291.8,485.8,291.9z"/>
	<path class="st0" d="M315.8,466.9c-0.1-0.9-0.2-1.7-0.3-2.5c-16,3.6-32.7,5.6-49.8,5.6c-94.3,0-175.2-58.3-208.6-140.8
		c-0.1,0-0.2,0-0.3,0c-2.9,0.1-5.7,0.3-8.6,0.4c11.6,29.8,29.3,57.1,52.6,80.4c44.1,44.1,102.6,68.3,164.9,68.3
		c17.1,0,33.9-1.8,50.1-5.4C315.8,470.9,315.8,468.9,315.8,466.9z"/>
</g>
</svg>
