<?xml version="1.0" encoding="utf-8"?>
<!-- Generator: Adobe Illustrator 24.0.1, SVG Export Plug-In . SVG Version: 6.00 Build 0)  -->
<svg version="1.1" id="Capa_1" xmlns="http://www.w3.org/2000/svg" xmlns:xlink="http://www.w3.org/1999/xlink" x="0px" y="0px"
	 viewBox="0 0 41.4 41.4" style="enable-background:new 0 0 41.4 41.4;" xml:space="preserve">
<style type="text/css">
	.st0{fill:#DD636E;}
	.st1{fill:#407093;}
</style>
<g>
	<g>
		<path class="st0" d="M40.9,16.6c-0.3-2.3-6.3,0-6.3,0l-0.4,3.2c-0.1-0.1-0.3-0.1-0.4-0.2l-1.5-6.7c-0.6-3.2-3-5.6-6.5-5.4h-9
			c-0.1,0.4-0.1,0.7-0.3,1.1h9.9c2.1,0,3.9,1.3,4.4,3.5l1.7,6.6c-0.1,0-0.2,0-0.3,0H13l0,6.5h11.9v1.4H13l0,0.4h11.8v1.4H13l0,5.4
			h12.7v3.4c0,1.4,1.7,2.5,3.9,2.5s3.9-1.1,3.9-2.5v-3.8c1.8-0.7,3.1-2.2,3.1-3.9v-6.2c0-1.4-0.8-2.6-2-3.4l6.4-0.3
			C40.9,19.7,41.2,18.9,40.9,16.6z M33.6,28.3h-7V25h7C33.6,25,33.6,28.3,33.6,28.3z"/>
		<rect x="12.8" y="27" width="0.2" height="1.4"/>
		<rect x="12.9" y="25.1" width="0.1" height="1.4"/>
		<path class="st1" d="M15.3,6.5c0-2.8-1.5-5.2-3.8-6.5v6L7.9,8.1L4.1,6V0C1.9,1.3,0.4,3.7,0.4,6.5c0,2.9,1.7,5.4,4.1,6.7v0v24.6
			c0,1,0.4,1.9,1,2.5c0.6,0.6,1.5,1,2.5,1c1.9,0,3.5-1.6,3.5-3.5l0-24.8C13.8,11.7,15.3,9.3,15.3,6.5z M8.8,39.4
			c-0.5,0.5-1.4,0.5-1.9,0c-0.5-0.5-0.5-1.4,0-1.9c0.5-0.5,1.4-0.5,1.9,0C9.3,38,9.3,38.9,8.8,39.4z"/>
	</g>
</g>
</svg>
