<?xml version="1.0" encoding="utf-8"?>
<!-- Generator: Adobe Illustrator 24.0.1, SVG Export Plug-In . SVG Version: 6.00 Build 0)  -->
<svg version="1.1" id="Layer_1" xmlns="http://www.w3.org/2000/svg" xmlns:xlink="http://www.w3.org/1999/xlink" x="0px" y="0px"
	 viewBox="0 0 512 512" style="enable-background:new 0 0 512 512;" xml:space="preserve">
<style type="text/css">
	.st0{fill:#FFFFFF;}
</style>
<g>
	<g>
		<path class="st0" d="M511.6,421.4c-1.6-12.3-8.7-22.9-19.5-29.1l-126.3-72.7c-15.5-8.9-35.1-6.3-47.7,6.3l-24.9,24.9
			c-6.6,6.6-17.1,7.2-24.4,1.4c-19.6-15.8-38.9-33.2-57.4-51.6c-18.5-18.5-35.8-37.8-51.6-57.4c-5.8-7.3-5.3-17.7,1.4-24.4
			l24.9-24.9c12.6-12.6,15.2-32.2,6.3-47.7L119.7,19.8C113.5,9.1,102.9,2,90.6,0.4C78.3-1.3,66.2,2.8,57.4,11.6L19.9,49.1
			c-26.2,26.2-26.6,74-1.2,134.8c24.4,58.4,70,122.7,128.3,181c58.3,58.3,122.6,103.9,181,128.3c29.9,12.5,56.7,18.8,79.3,18.8
			c23.3,0,42.2-6.6,55.5-19.9l37.5-37.5C509.2,445.8,513.3,433.7,511.6,421.4L511.6,421.4z M357.6,334l126.3,72.7
			c6.2,3.6,10.4,9.8,11.3,16.9c0.8,6-0.8,11.9-4.3,16.7L323,344.4l6.8-6.8C337.2,330.3,348.6,328.8,357.6,334L357.6,334z M88.4,16.8
			c7.1,0.9,13.3,5.1,16.9,11.3L178,154.4c5.2,9,3.7,20.4-3.7,27.7l-6.3,6.3L71.8,21.1c3.9-2.9,8.6-4.5,13.6-4.5
			C86.4,16.6,87.4,16.7,88.4,16.8L88.4,16.8z M451.2,480.3c-20.8,20.8-63.3,19.9-116.6-2.4c-56.5-23.6-118.9-67.9-175.7-124.8
			C102,296.3,57.7,233.9,34.1,177.5c-22.3-53.3-23.2-95.9-2.4-116.6L59.5,33L156,200.5l-6.5,6.5c-12.6,12.6-13.7,32.6-2.6,46.5
			c16.2,20.1,33.9,39.8,52.8,58.7c18.9,18.9,38.7,36.7,58.7,52.8c13.9,11.2,33.9,10.1,46.5-2.6l5.9-5.9L479,452.5L451.2,480.3
			L451.2,480.3z"/>
	</g>
</g>
</svg>
