<?xml version="1.0" encoding="utf-8"?>
<!-- Generator: Adobe Illustrator 24.0.1, SVG Export Plug-In . SVG Version: 6.00 Build 0)  -->
<svg version="1.1" id="Capa_1" xmlns="http://www.w3.org/2000/svg" xmlns:xlink="http://www.w3.org/1999/xlink" x="0px" y="0px"
	 viewBox="0 0 512 512" style="enable-background:new 0 0 512 512;" xml:space="preserve">
<style type="text/css">
	.st0{fill:#2F3096;}
</style>
<g>
	<g>
		<path class="st0" d="M424.1,287c-4.1,0-7.5,3.4-7.5,7.5V432c0,1.4-1.1,2.5-2.5,2.5H386c-5-5.1-12-8.2-19.7-8.2H306
			c1.7-3.5,2.6-7.3,2.6-11.4c0-14.6-11.9-26.4-26.4-26.4h-31.1c-7.5,0-14.9-1.4-21.9-4.1l-23.8-9.2c-8.7-3.4-17.9-5.1-27.3-5.1
			h-52.5v-1.7c0-9.6-7.9-17.5-17.5-17.5H12.5c-6.9,0-12.5,5.6-12.5,12.5v136.1c0,6.9,5.6,12.5,12.5,12.5h95.7
			c9.6,0,17.5-7.9,17.5-17.5v-12.9h240.7c15.2,0,27.6-12.4,27.6-27.6c0-1.5-0.1-3-0.4-4.4h20.5c9.6,0,17.5-7.9,17.5-17.5V294.5
			C431.6,290.3,428.2,287,424.1,287L424.1,287z M58,497H15V365.9h43V497z M110.7,494.5c0,1.4-1.1,2.5-2.5,2.5H73V365.9h35.2
			c1.4,0,2.5,1.1,2.5,2.5L110.7,494.5L110.7,494.5z M366.4,466.6H125.7v-81.5h52.5c7.5,0,14.9,1.4,21.9,4.1l23.8,9.2
			c8.7,3.4,17.9,5.1,27.3,5.1h31.1c6.3,0,11.4,5.1,11.4,11.4s-5.1,11.4-11.4,11.4h-43.8c-4.1,0-7.5,3.4-7.5,7.5s3.4,7.5,7.5,7.5h128
			c7,0,12.6,5.7,12.6,12.6S373.3,466.6,366.4,466.6L366.4,466.6z"/>
		<path class="st0" d="M341.2,396.3h48.2c4.1,0,7.5-3.4,7.5-7.5s-3.4-7.5-7.5-7.5h-48.2c-4.1,0-7.5,3.4-7.5,7.5
			S337.1,396.3,341.2,396.3z"/>
		<path class="st0" d="M341.2,365.9h48.2c4.1,0,7.5-3.4,7.5-7.5s-3.4-7.5-7.5-7.5h-48.2c-4.1,0-7.5,3.4-7.5,7.5
			S337.1,365.9,341.2,365.9z"/>
		<path class="st0" d="M431.1,96.2c13.7,0,24.8-11.1,24.8-24.8s-11.1-24.8-24.8-24.8c-13.7,0-24.8,11.1-24.8,24.8
			C406.3,85.1,417.4,96.2,431.1,96.2z M431.1,61.6c5.4,0,9.8,4.4,9.8,9.8s-4.4,9.8-9.8,9.8s-9.8-4.4-9.8-9.8
			C421.3,66,425.7,61.6,431.1,61.6z"/>
		<path class="st0" d="M505.3,66.2L443.4,5c-6.8-6.7-17.8-6.7-24.6,0l-62,61.1c-4.3,4.2-6.7,10-6.7,16v50.6H112.9
			c-9.6,0-17.5,7.9-17.5,17.5v173.2c0,4.1,3.4,7.5,7.5,7.5s7.5-3.4,7.5-7.5V150.3c0-1.4,1.1-2.5,2.5-2.5h115.2v61.7
			c0,4.8,2.7,9.1,6.9,11.2c1.8,0.9,3.7,1.3,5.6,1.3c2.7,0,5.3-0.9,7.5-2.5l15.4-11.6l15.4,11.6c3.8,2.9,8.8,3.4,13.1,1.2
			c4.3-2.1,6.9-6.4,6.9-11.2v-61.7h51.2v103.5c0,9.5,7.7,17.2,17.2,17.2h127.4c9.5,0,17.2-7.7,17.2-17.2V82.2
			C512,76.2,509.6,70.4,505.3,66.2L505.3,66.2z M283.9,204.5l-12.9-9.8c-2.2-1.7-4.9-2.5-7.5-2.5c-2.7,0-5.3,0.8-7.5,2.5l-12.9,9.8
			v-56.7h40.8V204.5z M287.9,207.5L287.9,207.5C287.9,207.5,287.9,207.5,287.9,207.5z M497,251.3c0,1.2-1,2.2-2.2,2.2H367.4
			c-1.2,0-2.2-1-2.2-2.2V82.2c0-2,0.8-3.9,2.2-5.3l62-61.1c0.5-0.5,1.1-0.7,1.8-0.7s1.3,0.2,1.8,0.7l62,61.1c0,0,0,0,0,0
			c1.4,1.4,2.2,3.3,2.2,5.3V251.3z"/>
		<path class="st0" d="M431.1,144.3c6,0,10.8,4.9,10.8,10.8c0,4.1,3.4,7.5,7.5,7.5s7.5-3.4,7.5-7.5c0-11.6-7.7-21.5-18.3-24.7v-10
			c0-4.1-3.4-7.5-7.5-7.5s-7.5,3.4-7.5,7.5v10c-10.6,3.2-18.3,13.1-18.3,24.7c0,14.2,11.6,25.8,25.8,25.8c0.2,0,0.4,0,0.6,0
			c5.7,0.3,10.2,5,10.2,10.8c0,6-4.9,10.8-10.8,10.8s-10.8-4.9-10.8-10.8c0-4.1-3.4-7.5-7.5-7.5s-7.5,3.4-7.5,7.5
			c0,11.6,7.7,21.5,18.3,24.7v10c0,4.1,3.4,7.5,7.5,7.5s7.5-3.4,7.5-7.5v-10c10.6-3.2,18.3-13.1,18.3-24.7
			c0-14.2-11.6-25.8-25.8-25.8c-0.2,0-0.4,0-0.6,0c-5.7-0.3-10.2-5-10.2-10.8C420.2,149.1,425.1,144.3,431.1,144.3L431.1,144.3z"/>
	</g>
</g>
</svg>
