<svg id="Capa_1" enable-background="new 0 0 511.381 511.381" height="512" viewBox="0 0 511.381 511.381" width="512" xmlns="http://www.w3.org/2000/svg"><g><g><path d="m125.442 287.462-61.686 174.917 62.062-.604 76.539-174.313z" fill="#80aaff"/><path d="m202.357 287.462-48.166 184.059 48.51 39.86 52.989-155.04v-68.879z" fill="#80aaff"/><path d="m185.603 287.462-59.785 174.313 16.319-.158 12.054 9.904 63.128-184.059z" fill="#eaf1ff"/></g><g><path d="m385.939 287.462 61.686 174.917-62.062-.604-76.539-174.313z" fill="#6680ff"/><path d="m309.024 287.462 48.166 184.059-48.51 39.86-52.989-155.04v-68.879z" fill="#6680ff"/><path d="m325.778 287.462 59.785 174.313-16.319-.158-12.054 9.904-63.128-184.059z" fill="#b3ccff"/></g><g><g><path d="m255.69 15-10.667 166.333 10.667 160c90.115 0 163.167-73.052 163.167-163.166 0-90.115-73.052-163.167-163.167-163.167z" fill="#eaf1ff"/><path d="m92.524 178.167c0 90.114 73.052 163.166 163.167 163.166v-326.333c-90.115 0-163.167 73.052-163.167 163.167z" fill="#f9f9f9"/></g><g><path d="m433.857 178.167c0-98.242-79.926-178.167-178.167-178.167l-10.667 10.667 10.667 19.333c81.699 0 148.167 66.467 148.167 148.167 0 81.699-66.468 148.166-148.167 148.166l-10.667 15 10.667 15c98.241 0 178.167-79.925 178.167-178.166z" fill="#fdae02"/><path d="m255.69 326.333c-81.699 0-148.166-66.467-148.166-148.166 0-81.7 66.467-148.167 148.166-148.167v-30c-98.241 0-178.166 79.925-178.166 178.167 0 98.241 79.925 178.166 178.166 178.166z" fill="#fdcb02"/></g></g><g><path d="m345.357 118.759-46.704 15.271-42.963-36.344-10.666 72.981 10.666 75.333h89.667z" fill="#fd9002"/><path d="m255.69 97.686-42.962 36.344-46.704-15.271v127.241h89.666z" fill="#fdae02"/></g></g></svg>